<?xml version="1.0" encoding="UTF-8"?>
<svg xmlns="http://www.w3.org/2000/svg" version="1.1" viewBox="0 0 1018.4 319.2">
  <defs>
    <style>
      .cls-1 {
        fill: #f4f2ed;
      }
    </style>
  </defs>
  <!-- Generator: Adobe Illustrator 28.6.0, SVG Export Plug-In . SVG Version: 1.2.0 Build 709)  -->
  <g>
    <g id="Livello_1">
      <g>
        <path class="cls-1" d="M32.3,122.4c9.1,0,17.5-.3,24.5.8,14.3,2.6,24.8,9.9,31.6,19.6,7,10.2,12,23.2,10.4,40.4-1.3,11.7-5.2,19.8-11.5,26.9-1.8,1.8-5.2,4.4-5.2,7.3-.3,3.1,2.6,4.4,4.2,6,9.9,9.4,16.7,26.6,15.7,44.6-1.8,30.2-21.9,46.4-51.4,50.1-6.5.8-14.9.8-24.5.8s-20.1,1.6-23.7-1.6c-3.4-2.9-2.1-15.4-2.1-22.7v-159.1c0-7.3-.5-12,6.3-12.8,7.6-1,17.7-.3,25.8-.3h0ZM39.1,261.2c0,7.3-1.6,21.6,3.1,23.5,4.9,2.1,11.5-2.6,13.8-5,13.3-13,8.1-42-9.4-45.6-1.3-.3-2.6,0-3.1,0-5.5,1-4.4,8.1-4.4,13.8v13.3h0ZM39.1,180.6c0,6.8-1.3,18.5,2.6,20.6,5,2.6,11.5-2.9,14.1-6,9.4-10.2,7.3-30.8-3.4-37-1.8-1.3-6.5-2.9-9.4-2.1-4.7,1.3-3.9,7.6-3.9,12.8v11.7h0Z"/>
        <path class="cls-1" d="M254,118.4c2.9,1.8,4.2,6.5,6,11.2,11.5,31,20.1,54.8,32.1,86.8,11.2,29.5,20.9,56.8,32.1,86.8,1.6,3.9,4.4,9.6,2.9,13-2.1,4.2-10.7,2.6-17.5,2.6s-16.2.8-19.5-1.3c-3.9-2.4-7-14.3-9.1-19.8l-3.9-10.7c-1.3-3.1-2.4-7.6-5.5-8.9-3.4-1.3-10.2-.8-15.6-.8h-32.6c-4.9,0-11.5-.8-15.4.8-3.4,1.3-4.7,5.5-6,8.9-2.9,7.3-5.2,13.8-8.3,21.4-1.6,4.2-3.1,8.4-6.8,9.6-4.2,1.6-11.5.8-18.8.8s-15.1,1.3-16.7-2.6c-1.3-3.4,1.8-9.4,3.4-13.3,21.9-58.1,44.1-116,66-173.9,2.4-6,3.1-10.9,10.2-12,4.9-.5,19.3-1.3,23.2,1.3h0ZM222.2,226.8c-1.3,4.4-4.9,12.2-3.4,16.2,1.8,4.4,13.6,2.9,20.1,2.9s19,1.6,21.1-2.1c2.3-3.9-2.4-12.3-3.6-16.4-3.6-10.9-6.8-20.6-10.7-31.6-1-3.1-3.9-14.9-7.8-13.8-3.6.8-5.2,11.2-6.3,14.6-3.1,10.2-6.3,19.6-9.4,30.2h0Z"/>
        <path class="cls-1" d="M783.9,118.4c2.9,1.8,4.2,6.5,6,11.2,11.5,31,20.1,54.8,32.1,86.8,11.2,29.5,20.9,56.8,32.1,86.8,1.6,3.9,4.4,9.6,2.9,13-2.1,4.2-10.7,2.6-17.5,2.6s-16.2.8-19.5-1.3c-3.9-2.4-7-14.3-9.1-19.8l-3.9-10.7c-1.3-3.1-2.3-7.6-5.5-8.9-3.4-1.3-10.2-.8-15.7-.8h-32.6c-5,0-11.5-.8-15.4.8-3.4,1.3-4.7,5.5-6,8.9-2.9,7.3-5.2,13.8-8.3,21.4-1.6,4.2-3.1,8.4-6.8,9.6-4.2,1.6-11.5.8-18.8.8s-15.1,1.3-16.7-2.6c-1.3-3.4,1.8-9.4,3.4-13.3,21.9-58.1,44.1-116,66-173.9,2.3-6,3.1-10.9,10.2-12,5-.5,19.3-1.3,23.2,1.3h0ZM752,226.8c-1.3,4.4-5,12.2-3.4,16.2,1.8,4.4,13.6,2.9,20.1,2.9s19,1.6,21.1-2.1c2.3-3.9-2.3-12.3-3.7-16.4-3.7-10.9-6.8-20.6-10.7-31.6-1-3.1-3.9-14.9-7.8-13.8-3.7.8-5.2,11.2-6.3,14.6-3.1,10.2-6.3,19.6-9.4,30.2h0Z"/>
        <path class="cls-1" d="M1000.2,318.8c-6.8,0-14.6,1-18.8-1.3-4.7-2.6-6.8-12.5-9.1-18.5-6.3-17.2-12-33.6-18.8-50.6-1.3-2.9-2.9-6.5-5.7-8.1-3.1,4.2-2.3,11.2-2.3,18v40.1c0,6,1,16.7-1.8,19-3.7,2.6-11.7,1.3-17.7,1.3s-14.6,1.3-17.5-1.6c-3.1-3.1-1.8-15.4-1.8-22.7v-146c0-6.8-1.3-19,1-23.2,2.6-4.4,13.3-2.9,20.3-2.9,14.6,0,30.2-.3,42.5,1.8,17.2,3.1,29.2,10.9,36.5,22.7,7.1,11.7,9.9,31.3,5.5,48.8-3.1,12.2-8.6,20.6-16.7,27.6-2.3,2.1-6.8,4.9-7,7.6-.8,3.6,1.8,8.1,3.1,11.5,8.1,21.1,15.9,42,24,62.8,1,3.4,3.4,6.8,2.3,11.5-3.1,3.1-10.9,2.1-18,2.1h0ZM945.4,181.7c0,6.5-1.3,20.9,2.1,23.7,3.9,3.4,13,.8,16.4-1.1,6.8-3.1,11.7-11.7,12.5-21.4,1-17.2-7.6-29.7-24.5-27.9-7,.8-6.5,6.3-6.5,13.6v13Z"/>
        <g>
          <path class="cls-1" d="M635.9,294.2v-143.1c0-11.7,1.6-25.3-2.3-27.6-3.1-2.1-10.7-1.3-17.2-1.3s-14.9-1-17.5,2.1c-2.6,3.1-1.6,20.7-1.6,20.7,0,6.5,1.3,16.7-1.8,19.6-2.3,2.6-10.4,1.8-15.9,1.8h-150.9c-5.5,0-13.6.8-15.9-1.8-3.1-2.9-1.8-13.1-1.8-19.6,0,0,1-17.5-1.6-20.7-2.6-3.1-10.4-2.1-17.5-2.1s-14.1-.8-17.2,1.3c-3.9,2.4-2.4,15.9-2.4,27.6v143.1c0,5.7-1.8,19.3,1.8,22.9,2.9,2.9,11.7,1.8,17.5,1.8s14.6,1,17.5-1.8c1.2-1.3,1.6-3.9,1.8-6.9v-37.7c0-16.4,8.8-8.7,18.5-8.7,13.9,0,20-6.5,36.1-6.5s16.8,6.5,38.5,6.5,27.1-6.5,38.5-6.5,22.2,6.5,36.1,6.5,18.5-7.7,18.5,8.7v37.7c.2,3,.7,5.6,1.8,6.9,2.9,2.9,11.2,1.8,17.5,1.8s14.6,1,17.5-1.8c3.7-3.6,1.8-17.2,1.8-22.9h0ZM597.3,215.2v3.5c0,8.3-4.6,9.9-13.3,9.9-18.6,0-19.8-6.5-41.3-6.5s-23.2,6.5-38.5,6.5-17-6.5-38.5-6.5-22.8,6.5-41.4,6.5-13.3-1.6-13.3-9.9v-3.5c0-6-1-10.7,1.8-13.3,2.4-2.4,9.4-1.8,16.4-1.8h149.9c7,0,14.1-.5,16.4,1.8,2.9,2.6,1.8,7.3,1.8,13.3h0Z"/>
          <path class="cls-1" d="M417.7,102c.9.8,2.5,1.3,4.4,1.5h164.1c1.9-.2,3.5-.6,4.4-1.5,2.1-1.9,1.5-7.5,1.5-11.2s.2-9.2-.2-12.9c-.8-5.4-4-5.2-10.2-5.2h-31.8c-4.2,0-6.3-2.2-2.5-6.1,4.1-4.3,16.8-16.8,16.8-16.8,3.5-3.5,11.8-10.6,12.1-13.9.2-3.7-5.2-7.5-8.7-11-3.8-3.8-7.8-9-11-9-1.1,0-2.3.5-3.5,1.4l-8.9,8.9s-11.2,11.2-18.5,18.5c-3.8,3.8-6.1,2.4-6.1-2.5v-21.9c0-5,.8-15.8-1.2-18.3-2.5-2.7-6.9-1.7-14.1-1.7s-11.6-1-14.1,1.7c-2.1,2.5-1.2,13.3-1.2,18.3v21.9c0,4.9-2.4,6.3-6.1,2.5-7.3-7.3-18.5-18.5-18.5-18.5l-8.9-8.9c-1.2-.9-2.4-1.5-3.5-1.4-3.2,0-7.2,5.2-11,9-3.5,3.5-8.8,7.4-8.7,11,.3,3.2,8.5,10.3,12.1,13.8,0,0,12.7,12.5,16.8,16.8,3.8,3.9,1.7,6.1-2.5,6.1h-31.8c-6.2,0-9.4-.2-10.2,5.2-.4,3.8-.2,7.9-.2,12.9s-.6,9.4,1.5,11.2h0Z"/>
        </g>
      </g>
    </g>
  </g>
</svg>