<?xml version="1.0" encoding="UTF-8"?>
<svg id="Livello_1" xmlns="http://www.w3.org/2000/svg" version="1.1" viewBox="0 0 1052.99 421.18">
  <!-- Generator: Adobe Illustrator 29.0.1, SVG Export Plug-In . SVG Version: 2.1.0 Build 192)  -->
  <defs>
    <style>
      .st0 {
        fill: #d46943;
      }
    </style>
  </defs>
  <g>
    <path class="st0" d="M49.6,131.38c9.13,0,17.47-.26,24.51.78,14.34,2.6,24.77,9.91,31.55,19.55,7.04,10.17,11.99,23.21,10.43,40.42-1.3,11.73-5.22,19.81-11.47,26.86-1.82,1.82-5.22,4.43-5.22,7.3-.26,3.12,2.6,4.43,4.17,6,9.91,9.39,16.69,26.6,15.65,44.59-1.83,30.24-21.9,46.41-51.37,50.06-6.52.78-14.86.78-24.51.78-6.26,0-20.08,1.56-23.73-1.56-3.39-2.87-2.09-15.39-2.09-22.68v-159.05c0-7.3-.52-11.99,6.26-12.77,7.56-1.04,17.74-.26,25.82-.26ZM56.37,270.1c0,7.3-1.56,21.64,3.13,23.46,4.95,2.08,11.47-2.61,13.82-4.95,13.3-13.03,8.09-41.97-9.38-45.63-1.31-.26-2.61,0-3.13,0-5.48,1.04-4.43,8.08-4.43,13.82v13.3ZM56.37,189.52c0,6.78-1.3,18.52,2.61,20.6,4.95,2.6,11.47-2.87,14.08-6,9.39-10.17,7.31-30.77-3.38-37.03-1.83-1.3-6.52-2.86-9.39-2.08-4.69,1.3-3.91,7.56-3.91,12.77v11.73Z"/>
    <path class="st0" d="M271.26,127.31c2.87,1.82,4.17,6.52,6,11.21,11.47,31.03,20.07,54.76,32.07,86.83,11.21,29.46,20.86,56.84,32.07,86.82,1.56,3.91,4.43,9.65,2.87,13.04-2.09,4.17-10.69,2.6-17.48,2.6-7.3,0-16.16.78-19.55-1.3-3.91-2.35-7.04-14.34-9.13-19.82l-3.91-10.69c-1.31-3.12-2.35-7.56-5.48-8.86-3.39-1.31-10.17-.78-15.65-.78h-32.59c-4.95,0-11.47-.79-15.39.78-3.38,1.3-4.69,5.48-6,8.86-2.86,7.31-5.22,13.82-8.34,21.38-1.57,4.17-3.13,8.35-6.79,9.65-4.17,1.56-11.47.78-18.77.78-6.26,0-15.13,1.3-16.69-2.6-1.3-3.39,1.82-9.39,3.39-13.3,21.9-58.14,44.07-116.03,65.96-173.91,2.35-6,3.13-10.95,10.17-11.99,4.95-.52,19.3-1.3,23.2,1.3ZM239.46,235.78c-1.3,4.43-4.95,12.25-3.39,16.16,1.82,4.43,13.56,2.87,20.08,2.87,5.74,0,19.03,1.56,21.12-2.08,2.34-3.91-2.35-12.26-3.65-16.43-3.65-10.95-6.78-20.6-10.69-31.55-1.04-3.13-3.91-14.86-7.82-13.82-3.65.79-5.22,11.21-6.26,14.6-3.12,10.17-6.26,19.56-9.38,30.25Z"/>
    <path class="st0" d="M801.13,127.31c2.87,1.82,4.17,6.52,6,11.21,11.47,31.03,20.07,54.76,32.07,86.83,11.21,29.46,20.86,56.84,32.07,86.82,1.56,3.91,4.43,9.65,2.87,13.04-2.09,4.17-10.69,2.6-17.48,2.6-7.3,0-16.16.78-19.55-1.3-3.91-2.35-7.04-14.34-9.13-19.82l-3.91-10.69c-1.31-3.12-2.35-7.56-5.48-8.86-3.39-1.31-10.17-.78-15.65-.78h-32.59c-4.95,0-11.47-.79-15.39.78-3.38,1.3-4.69,5.48-6,8.86-2.86,7.31-5.22,13.82-8.34,21.38-1.57,4.17-3.13,8.35-6.79,9.65-4.17,1.56-11.47.78-18.77.78-6.26,0-15.13,1.3-16.69-2.6-1.3-3.39,1.82-9.39,3.39-13.3,21.9-58.14,44.07-116.03,65.96-173.91,2.35-6,3.13-10.95,10.17-11.99,4.95-.52,19.3-1.3,23.2,1.3ZM769.32,235.78c-1.3,4.43-4.95,12.25-3.39,16.16,1.82,4.43,13.56,2.87,20.08,2.87,5.74,0,19.03,1.56,21.12-2.08,2.34-3.91-2.35-12.26-3.65-16.43-3.65-10.95-6.78-20.6-10.69-31.55-1.04-3.13-3.91-14.86-7.82-13.82-3.65.79-5.22,11.21-6.26,14.6-3.12,10.17-6.26,19.56-9.38,30.25Z"/>
    <path class="st0" d="M1017.46,327.78c-6.78,0-14.6,1.04-18.77-1.3-4.69-2.61-6.79-12.51-9.13-18.52-6.26-17.21-11.99-33.64-18.77-50.58-1.31-2.86-2.87-6.52-5.74-8.08-3.13,4.17-2.35,11.21-2.35,17.99v40.15c0,6,1.04,16.69-1.82,19.04-3.65,2.6-11.73,1.3-17.73,1.3-5.48,0-14.6,1.3-17.47-1.56-3.13-3.13-1.83-15.39-1.83-22.68v-146.02c0-6.78-1.3-19.03,1.04-23.2,2.61-4.43,13.3-2.86,20.34-2.86,14.6,0,30.25-.26,42.5,1.82,17.21,3.13,29.2,10.95,36.5,22.68,7.05,11.73,9.91,31.29,5.48,48.76-3.12,12.25-8.6,20.6-16.69,27.64-2.34,2.08-6.78,4.95-7.04,7.56-.78,3.65,1.82,8.09,3.13,11.47,8.08,21.12,15.9,41.98,23.99,62.84,1.04,3.38,3.38,6.78,2.34,11.47-3.12,3.12-10.95,2.08-17.99,2.08ZM962.71,190.63c0,6.52-1.3,20.86,2.09,23.73,3.91,3.38,13.03.78,16.43-1.05,6.78-3.12,11.73-11.73,12.51-21.37,1.04-17.22-7.57-29.73-24.51-27.9-7.04.78-6.52,6.26-6.52,13.56v13.03Z"/>
    <g>
      <path class="st0" d="M653.17,303.15v-143.14c0-11.74,1.56-25.3-2.35-27.65-3.12-2.08-10.68-1.3-17.21-1.3-7.04,0-14.86-1.04-17.47,2.08-2.6,3.13-1.56,20.68-1.56,20.68,0,6.52,1.3,16.73-1.82,19.6-2.35,2.61-10.43,1.83-15.91,1.83h-150.89c-5.48,0-13.56.78-15.91-1.83-3.12-2.86-1.82-13.08-1.82-19.6,0,0,1.04-17.54-1.56-20.68-2.61-3.12-10.43-2.08-17.47-2.08-6.53,0-14.08-.78-17.21,1.3-3.91,2.35-2.35,15.91-2.35,27.65v143.14c0,5.74-1.82,19.29,1.82,22.94,2.87,2.87,11.74,1.82,17.48,1.82,6.26,0,14.6,1.05,17.47-1.82,1.18-1.3,1.64-3.94,1.82-6.9v-37.71c0-16.35,8.83-8.68,18.51-8.68,13.86,0,19.97-6.46,36.11-6.46,11.48,0,16.83,6.46,38.55,6.46s27.07-6.46,38.55-6.46c16.14,0,22.25,6.46,36.11,6.46,9.68,0,18.51-7.67,18.51,8.68v37.71c.18,2.97.65,5.61,1.82,6.9,2.87,2.87,11.21,1.82,17.47,1.82,5.74,0,14.6,1.05,17.48-1.82,3.65-3.65,1.82-17.21,1.82-22.94ZM614.58,224.13v3.54c0,8.33-4.58,9.91-13.27,9.91-18.58,0-19.84-6.46-41.35-6.46s-23.25,6.46-38.55,6.46-17.04-6.46-38.55-6.46-22.77,6.46-41.35,6.46c-8.69,0-13.27-1.58-13.27-9.91v-3.54c0-6-1.04-10.68,1.82-13.28,2.35-2.35,9.39-1.83,16.43-1.83h149.85c7.04,0,14.08-.52,16.43,1.83,2.86,2.6,1.82,7.29,1.82,13.28Z"/>
      <path class="st0" d="M435,110.94c.85.85,2.47,1.26,4.37,1.46h164.08c1.89-.19,3.52-.61,4.37-1.46,2.08-1.88,1.46-7.5,1.46-11.25,0-5,.21-9.16-.21-12.92-.83-5.41-3.96-5.21-10.21-5.21h-31.77c-4.23,0-6.32-2.22-2.54-6.13,4.13-4.27,16.8-16.8,16.8-16.8,3.53-3.53,11.78-10.6,12.07-13.85.15-3.68-5.16-7.51-8.69-11.04-3.83-3.83-7.8-8.98-11.04-8.99-1.06-.04-2.26.55-3.49,1.43l-8.88,8.88s-11.16,11.2-18.45,18.52c-3.75,3.76-6.13,2.36-6.13-2.54v-21.92c0-5,.83-15.83-1.25-18.33-2.5-2.7-6.91-1.66-14.08-1.66s-11.58-1.04-14.08,1.66c-2.09,2.5-1.25,13.33-1.25,18.33v21.92c0,4.9-2.38,6.3-6.13,2.54-7.3-7.32-18.45-18.52-18.45-18.52l-8.88-8.88c-1.24-.89-2.43-1.47-3.49-1.43-3.24,0-7.22,5.16-11.04,8.99-3.53,3.53-8.84,7.37-8.69,11.04.29,3.24,8.54,10.31,12.07,13.85,0,0,12.67,12.53,16.8,16.8,3.78,3.91,1.69,6.13-2.54,6.13h-31.77c-6.25,0-9.38-.21-10.21,5.21-.42,3.75-.21,7.92-.21,12.92,0,3.75-.62,9.37,1.46,11.25Z"/>
    </g>
  </g>
  <g>
    <path class="st0" d="M280.18,370.11c1.4.38,3.65.91,4.18,2.09.43.91.22,2.84.22,4.18,0,.91.27,3.65-.48,3.86-.54.16-1.18-.54-1.56-.81-1.4-1.02-2.95-1.77-4.83-2.15-2.95-.54-5.63.16-7.56,1.29-3.7,2.15-6.22,6.28-6.38,12.23-.11,3.06.7,5.36,1.88,7.46,1.13,2.04,2.57,3.7,4.45,4.83,1.93,1.13,4.88,1.82,7.67,1.23,1.82-.38,3.38-1.18,4.77-2.2.43-.32,1.02-.91,1.56-.75.75.22.48,2.9.48,3.91,0,1.61.16,3.33-.27,4.13-.59,1.07-2.68,1.56-3.92,1.93-1.45.43-3.27.8-4.99.8-3.75,0-6.7-1.02-9.22-2.36-4.83-2.58-8.42-7.35-9.92-13.3-1.77-7.03.27-14.16,3.32-18.5,2.36-3.38,5.36-6.01,9.87-7.51,1.55-.54,3.22-.81,4.98-.91,1.77-.11,3.86.05,5.74.54Z"/>
    <path class="st0" d="M302.72,370.96c.59.59.38,3.17.38,4.72v30.25c0,1.5.27,4.24-.43,4.83-.65.59-2.26.32-3.59.32s-3.01.16-3.54-.38c-.59-.59-.38-3.16-.38-4.67v-32.77c0-1.56-.05-2.47,1.34-2.63,1.02-.11,5.52-.38,6.22.32Z"/>
    <path class="st0" d="M320.75,370.75c1.88,0,3.59-.05,5.04.16,2.95.54,5.09,2.04,6.49,4.02,1.45,2.09,2.47,4.77,2.15,8.31-.27,2.41-1.07,4.08-2.36,5.52-.38.38-1.08.91-1.08,1.5-.05.65.54.91.86,1.24,2.04,1.93,3.43,5.47,3.22,9.17-.38,6.22-4.51,9.54-10.57,10.3-1.34.16-3.06.16-5.04.16-1.29,0-4.13.32-4.88-.32-.7-.59-.43-3.16-.43-4.66v-32.72c0-1.5-.11-2.47,1.29-2.63,1.56-.22,3.65-.05,5.31-.05ZM322.15,399.28c0,1.5-.32,4.45.64,4.83,1.02.43,2.36-.54,2.84-1.02,2.74-2.68,1.67-8.64-1.93-9.39-.27-.05-.54,0-.64,0-1.13.22-.91,1.66-.91,2.84v2.74ZM322.15,382.71c0,1.39-.27,3.81.54,4.24,1.02.54,2.36-.59,2.9-1.24,1.93-2.09,1.5-6.33-.7-7.62-.38-.27-1.34-.59-1.93-.43-.97.27-.8,1.56-.8,2.63v2.42Z"/>
    <path class="st0" d="M377.24,374.99c3.38,3.33,5.68,8.32,6,14.64.32,6.7-1.72,12.01-4.83,15.72-3.06,3.65-7.62,6.49-13.89,6.76-6.65.32-11.8-2.09-15.18-5.36-3.54-3.43-5.63-8.15-6.06-14.59-.43-6.7,1.88-12.17,4.77-15.77,2.2-2.74,5.36-4.99,9.38-6.11,1.4-.38,3.06-.59,4.56-.7,6.7-.38,11.85,2.09,15.23,5.41ZM351.5,391.51c.54,7.46,4.4,13.03,12.49,12.76,3.7-.11,6.49-1.93,8.26-4.35,1.77-2.36,3-5.79,2.84-9.76-.16-3.81-1.61-7.03-3.49-9.12-1.98-2.2-5.15-3.91-9.01-3.64-1.88.11-3.54.64-4.93,1.45-3.75,2.2-6.6,6.65-6.17,12.66Z"/>
    <path class="st0" d="M433.96,376.92c2.79,3.97,3.91,9.98,3.49,16.95-.59,9.55-4.77,15.88-13.89,17.06-2.2.27-4.93.22-7.51.22-1.02,0-1.93.05-2.36-.43-.59-.7-.32-3.27-.32-4.77v-30.2c0-1.61-.27-4.02.38-4.66.7-.7,4.56-.27,5.79-.32,7.35-.38,11.64,2.2,14.43,6.17ZM421.41,391.02v6.49c0,1.72-.38,5.47.43,6.06,1.02.65,3.01-.48,3.6-.91,4.61-3.43,5.15-14.86,2.2-20.54-.97-1.88-2.47-3.65-4.83-3.97-.16-.05-.32-.05-.38,0-.86.05-1.02.64-1.02,1.56-.16,4.07,0,7.35,0,11.31Z"/>
    <path class="st0" d="M466.42,411.03c-1.4,0-3,.22-3.86-.27-.97-.54-1.4-2.58-1.88-3.81-1.29-3.54-2.47-6.92-3.86-10.41-.27-.59-.59-1.34-1.18-1.66-.64.86-.48,2.31-.48,3.7v8.26c0,1.24.22,3.43-.38,3.92-.75.54-2.41.27-3.65.27-1.13,0-3,.27-3.59-.32-.65-.65-.38-3.16-.38-4.67v-30.03c0-1.4-.27-3.92.22-4.77.54-.91,2.73-.59,4.18-.59,3,0,6.22-.05,8.74.38,3.54.65,6,2.25,7.51,4.67,1.45,2.41,2.04,6.44,1.13,10.03-.65,2.52-1.77,4.24-3.43,5.68-.48.43-1.4,1.02-1.45,1.56-.16.75.38,1.66.65,2.36,1.66,4.34,3.27,8.63,4.93,12.92.22.7.7,1.4.48,2.36-.64.64-2.25.43-3.7.43ZM455.15,382.82c0,1.34-.27,4.29.43,4.88.8.7,2.68.16,3.38-.22,1.4-.65,2.41-2.42,2.57-4.4.22-3.54-1.55-6.11-5.04-5.74-1.45.16-1.34,1.29-1.34,2.79v2.68Z"/>
    <path class="st0" d="M488.58,370.96c.59.59.38,3.17.38,4.72v30.25c0,1.5.27,4.24-.43,4.83-.64.59-2.25.32-3.59.32s-3,.16-3.54-.38c-.59-.59-.38-3.16-.38-4.67v-32.77c0-1.56-.05-2.47,1.34-2.63,1.02-.11,5.52-.38,6.22.32Z"/>
    <path class="st0" d="M505.43,369.68c1.02.32,2.2,2.15,2.89,3.11,5.58,7.51,11,14.86,16.74,22.31.75.97,1.93,2.31,2.09.11.11-1.56,0-3.43,0-4.88v-16.31c0-1.07-.11-2.57.38-3.06.64-.59,2.41-.38,3.59-.38,1.29,0,3.22-.22,3.7.48.59.86.27,3.43.27,4.88v30.73c0,1.5.22,4.13-.32,4.77-.59.65-3.92.65-5.04.27-1.18-.43-2.09-2.15-2.84-3.17-5.63-7.46-10.99-14.75-16.79-22.26-.38-.54-1.07-1.5-1.61-1.34-.59.16-.48,1.82-.48,2.84v19.9c0,1.23.11,2.57-.43,3.06-.59.54-2.47.32-3.54.32-1.13,0-2.9.22-3.54-.32-.65-.59-.43-3.17-.43-4.77v-31c0-1.66-.27-4.07.27-4.88.22-.32.38-.43,1.08-.54.59-.05,3.11-.22,4.02.11Z"/>
    <path class="st0" d="M555.59,384.69c1.34-3.32,2.41-6.65,3.7-10.13.38-1.08.92-3.17,1.83-3.65.81-.38,2.31-.16,3.81-.16,1.18,0,3.11-.32,3.43.48.27.65-.32,1.66-.65,2.41-1.82,4.56-3.43,8.74-5.31,13.36-.27.7-.7,1.61-.7,2.31-.05.86.54,1.99.86,2.79,2.04,5.36,3.92,10.3,6.06,15.71.27.7,1.02,2.09.7,2.79-.32.75-2.47.54-3.7.54s-3.16.22-3.91-.27c-.54-.32-.86-1.29-1.13-2.04-1.61-4.67-3.11-9.28-4.88-13.89-.27-.7-.54-1.5-1.18-1.93-.7,1.07-.48,2.68-.48,4.18v9.28c0,1.29.22,3.7-.38,4.29-.54.54-2.25.38-3.59.38s-3.22.16-3.76-.43c-.59-.7-.32-3.33-.32-4.77v-29.98c0-1.45-.27-4.07.27-4.77.64-.81,2.68-.43,4.34-.43,1.13,0,2.57-.16,3.06.32.54.59.38,2.41.38,3.65v8.04c0,1.24-.16,2.58.43,3.54.64-.22.86-1.02,1.13-1.61Z"/>
    <path class="st0" d="M608.49,370.75h3.7c1.18,0,2.84-.16,3.33.32.54.59.32,2.25.32,3.43,0,1.07.22,2.79-.32,3.38-.59.59-2.36.32-3.65.32s-3.27-.16-3.75.43c-.59.81-.32,2.41-.32,4.02,0,1.24-.21,3.38.38,3.97.92.91,5.52-.27,6.44.75.54.65.32,2.58.32,3.43,0,1.08.16,2.79-.38,3.33-.97.97-5.25-.27-6.33.64-.75.65-.43,3.01-.43,4.19s-.27,3.81.48,4.34c1.23.81,6.38-.48,7.4.64.54.65.27,2.36.27,3.49s.22,2.79-.32,3.33-2.52.38-3.7.38h-8.05c-1.13,0-3.16.11-3.7-.32-.64-.59-.43-3.16-.43-4.66v-30.2c0-1.29-.27-4.07.27-4.77.27-.32.7-.38,1.08-.38,1.61-.22,4.88-.05,7.4-.05Z"/>
    <path class="st0" d="M648.52,370.59c1.02,0,2.42-.11,3.11.27.75.43,1.13,1.82,1.56,2.95,2.41,6.7,4.5,12.93,6.97,19.74.27.75.81,2.9,1.56,2.9.7,0,1.29-2.31,1.5-2.9,2.09-6.76,4.24-13.09,6.49-19.74.38-1.18.59-2.47,1.4-2.95.91-.54,2.63-.27,3.97-.27,1.5,0,3.38-.27,3.7.54.27.7-.43,2.04-.7,2.73-4.4,11.96-9.01,23.81-13.52,35.78-.38.97-.75,1.93-1.23,2.25-.75.48-3.43.43-4.13,0-.54-.32-.91-1.4-1.23-2.31-4.56-12.07-8.85-23.55-13.25-35.67-.43-1.18-1.61-3,.32-3.27.75-.11,2.14-.05,3.48-.05Z"/>
    <path class="st0" d="M694.34,370.96c.59.59.38,3.17.38,4.72v30.25c0,1.5.27,4.24-.43,4.83-.64.59-2.25.32-3.59.32s-3,.16-3.54-.38c-.59-.59-.38-3.16-.38-4.67v-32.77c0-1.56-.05-2.47,1.34-2.63,1.02-.11,5.52-.38,6.22.32Z"/>
    <path class="st0" d="M726.1,372.09c.75.43,1.93,1.08,1.99,1.99.11,1.02-.86,1.88-1.4,2.63-.38.59-.97,2.04-1.88,2.15-.92.11-1.56-1.07-2.52-1.66-.91-.54-2.58-1.08-4.29-.86-1.82.27-3.06,1.29-3.7,2.58-.32.7-.54,2.04-.22,3,.81,2.31,3.54,3.22,5.74,4.18,4.72,2.04,9.01,4.13,9.87,9.92.91,6.33-1.66,11.53-5.47,14-2.09,1.39-4.56,2.14-7.73,2.14-4.61,0-7.78-2.14-10.14-4.72-.59-.65-1.93-2.04-1.88-3.06.05-1.02,1.24-1.82,1.93-2.52.32-.32.75-.64,1.18-1.07.32-.27.7-.91,1.34-.86.65.05,1.07.97,1.4,1.51,1.07,1.61,2.84,3.16,4.98,3.54,3.65.7,6.01-1.93,6.28-4.93.38-4.4-2.95-5.68-5.9-6.87-4.45-1.77-8.91-3.86-9.87-9.28-.7-4.08.65-7.67,2.42-9.92.91-1.13,1.93-2.09,3.43-2.95,1.39-.81,3-1.34,5.04-1.45,3.38-.22,7.03,1.07,9.39,2.52Z"/>
    <path class="st0" d="M743.43,370.64h9.55c1.34,0,4.08-.22,4.56.43.48.64.32,2.04.32,3.38s.16,2.79-.38,3.33c-1.07,1.13-4.34-.32-5.52.7-.64.54-.43,2.52-.43,3.75v24.73c0,1.5.22,3.16-.38,3.75s-2.26.32-3.65.32c-1.18,0-3.06.27-3.65-.32-.54-.59-.32-2.41-.32-3.75v-24.73c0-1.18.21-3.06-.38-3.7-1.08-1.08-4.51.32-5.52-.75-.54-.48-.38-1.99-.38-3.27,0-2.04-.38-3.59,1.29-3.81,1.18-.16,3.22-.05,4.88-.05Z"/>
    <path class="st0" d="M782.27,369.84c.59.38.86,1.34,1.24,2.31,2.36,6.38,4.13,11.26,6.6,17.86,2.31,6.06,4.29,11.69,6.6,17.86.32.81.91,1.98.59,2.68-.43.86-2.2.54-3.59.54-1.5,0-3.32.16-4.02-.27-.8-.48-1.45-2.95-1.88-4.07l-.81-2.2c-.27-.64-.48-1.56-1.13-1.82-.7-.27-2.09-.16-3.22-.16h-6.7c-1.02,0-2.36-.16-3.16.16-.7.27-.97,1.13-1.24,1.82-.59,1.5-1.07,2.84-1.72,4.4-.32.86-.64,1.72-1.39,1.99-.86.32-2.36.16-3.86.16-1.29,0-3.11.27-3.43-.54-.27-.7.38-1.93.7-2.74,4.51-11.96,9.07-23.87,13.57-35.77.48-1.24.65-2.25,2.09-2.47,1.02-.11,3.97-.27,4.77.27ZM775.73,392.15c-.27.91-1.02,2.52-.7,3.33.38.91,2.79.59,4.13.59,1.18,0,3.91.32,4.34-.43.48-.81-.48-2.52-.75-3.38-.75-2.25-1.4-4.24-2.2-6.49-.22-.65-.81-3.06-1.61-2.84-.75.16-1.08,2.31-1.29,3-.64,2.09-1.29,4.02-1.93,6.22Z"/>
  </g>
</svg>